# xmcd CD database file
#
# Track frame offsets:
#	150
#	30543
#	57523
#	81333
#	105576
#	125935
#	161349
#	200857
#	214053
#	243300
#	265843
#
# Disc length: 4088 seconds
#
# Revision: 0
# Processed by: cddbd v1.5.2PL0 Copyright (c) Steve Scherf et al.
# Submitted via: CDex 2.03
#
DISCID=a00ff60b
DTITLE=Roland Hug - New-Orleans All-Stars  Live at "Festijazz"
DYEAR=1999
DGENRE=Jazz
TTITLE0=Bourbon Street Parade
TTITLE1=Sweetheart On Parade
TTITLE2=Back O'Town Blues
TTITLE3=C'est si bon
TTITLE4=What A Wonderful World
TTITLE5=Big Butter And Egg Man
TTITLE6=I Can't Give You Anything But Love
TTITLE7=Whispering
TTITLE8=Royal Garden Blues
TTITLE9=When It's Sleepy Time Down South 
TTITLE10=Indiana
EXTD=YEAR: 1999
EXTT0=
EXTT1=
EXTT2=
EXTT3=
EXTT4=
EXTT5=
EXTT6=
EXTT7=
EXTT8=
EXTT9=
EXTT10=
PLAYORDER=
